<?xml version="1.0" standalone="no"?><!DOCTYPE svg PUBLIC "-//W3C//DTD SVG 1.1//EN" "http://www.w3.org/Graphics/SVG/1.1/DTD/svg11.dtd"><svg t="1701334476742" class="icon" viewBox="0 0 1024 1024" version="1.1" xmlns="http://www.w3.org/2000/svg" p-id="10995" xmlns:xlink="http://www.w3.org/1999/xlink" width="128" height="128"><path d="M510.111648 545.26681c-18.786276 0-34.80836-6.654539-48.219816-19.963618a65.112108 65.112108 0 0 1-20.065996-47.810306V68.852983c0-18.63271 6.654539-34.757171 20.065996-48.373382 12.490058-13.25789 29.996616-20.680261 48.271004-20.424317 19.45173 0 35.832135 6.808106 49.243592 20.475505a66.545393 66.545393 0 0 1 20.014806 48.322194v408.639903c0 18.63271-6.654539 34.603605-20.014806 47.912683a67.466791 67.466791 0 0 1-49.243592 19.861241m278.466877-396.815299c31.8906 22.420679 61.017007 48.629326 86.662578 77.960488 25.287249 29.024029 46.888908 60.402742 65.00973 94.084948a469.964043 469.964043 0 0 1 55.283865 221.493782 460.903632 460.903632 0 0 1-38.49395 187.658009 490.234793 490.234793 0 0 1-104.015569 152.696083 494.841782 494.841782 0 0 1-153.924614 103.247737A471.294951 471.294951 0 0 1 510.162836 1023.779376a468.940268 468.940268 0 0 1-188.067519-38.186818 500.626113 500.626113 0 0 1-154.385312-103.247737A478.76851 478.76851 0 0 1 63.592059 729.648738a467.353416 467.353416 0 0 1-37.879686-187.555631c0-38.033252 4.504611-75.247483 13.462645-111.84745a497.042899 497.042899 0 0 1 38.54514-104.322701 462.439295 462.439295 0 0 1 61.733649-92.446908c24.570607-28.665708 52.212539-54.6696 82.311533-77.499789 14.691175-11.159151 33.272697-15.868517 51.547085-12.899568 18.427955 2.866571 33.375074 11.824604 44.994924 26.92529 11.517472 15.049497 15.868517 31.839411 12.899568 50.472121-2.559438 18.120822-12.285303 34.398849-27.027667 45.199679A335.08165 335.08165 0 0 0 163.410149 542.093107c0 47.298418 8.958034 91.93502 27.027667 133.807429 17.40418 41.053389 42.64024 78.318809 74.223708 109.697521a355.557155 355.557155 0 0 0 110.56773 74.223708 335.747104 335.747104 0 0 0 134.933582 27.437178c47.605551 0 92.651663-9.213978 134.831205-27.437178a355.250023 355.250023 0 0 0 110.56773-74.223708 352.076319 352.076319 0 0 0 74.735596-109.697521 329.041375 329.041375 0 0 0 27.641933-133.807429 338.152975 338.152975 0 0 0-39.005839-158.63398 336.71969 336.71969 0 0 0-109.441577-123.108978 64.549031 64.549031 0 0 1-28.665708-44.022337 67.466791 67.466791 0 0 1 55.795753-79.08664c18.786276-3.224892 36.088079 0.511888 51.956595 11.261528" fill="#515151" p-id="10996"></path></svg>